# 3ds Max Wavefront OBJ Exporter v0.97b - (c)2007 guruware
# File Created: 10.01.2014 00:27:05

mtllib poorfolks_tavern_sign.mtl

#
# object poorfolks_tavern_sign
#

v  2.0000 39.8138 8.4733
v  2.0000 39.8139 25.2735
v  2.0000 -8.4089 82.0737
v  2.0000 -15.7841 75.8851
v  -2.0000 39.8139 8.4732
v  -2.0000 -15.7841 75.8850
v  -2.0000 -8.4088 82.0736
v  -2.0000 39.8139 25.2734
v  2.8681 39.8139 -82.0736
v  2.8681 55.8139 -82.0736
v  2.8680 55.8139 71.9262
v  2.8680 39.8139 71.9262
v  -2.8680 39.8139 -82.0737
v  -2.8681 39.8139 71.9262
v  -2.8681 55.8139 71.9262
v  -2.8680 55.8139 -82.0737
v  1.0334 11.8138 -13.0737
v  1.0334 39.8138 -13.0737
v  1.0334 39.8138 -11.0737
v  1.0334 11.8138 -11.0737
v  -0.9665 11.8138 -13.0737
v  -0.9665 11.8138 -11.0737
v  -0.9665 39.8138 -11.0737
v  -0.9665 39.8138 -13.0737
v  1.0334 11.8138 -72.0737
v  1.0334 39.8138 -72.0737
v  1.0334 39.8138 -70.0737
v  1.0334 11.8138 -70.0737
v  -0.9665 11.8138 -72.0737
v  -0.9665 11.8138 -70.0737
v  -0.9665 39.8138 -70.0737
v  -0.9665 39.8138 -72.0737
v  2.0000 -55.8139 -78.0736
v  2.0000 12.1861 -78.0736
v  2.0000 12.1861 -4.0736
v  2.0000 -55.8139 -4.0736
v  -2.0000 -55.8139 -78.0737
v  -2.0000 -55.8139 -4.0737
v  -2.0000 12.1861 -4.0737
v  -2.0000 12.1861 -78.0737
# 40 vertices

vn 1.0000 -0.0000 0.0000
vn -1.0000 0.0000 -0.0000
vn 0.0000 -0.7715 -0.6363
vn -0.0000 0.7623 0.6472
vn 1.0000 0.0000 0.0000
vn -1.0000 -0.0000 -0.0000
vn 0.0000 -1.0000 -0.0000
vn -0.0000 1.0000 0.0000
vn 0.0000 0.0000 -1.0000
vn -0.0000 -0.0000 1.0000
vn 0.0000 -1.0000 0.0000
vn -0.0000 1.0000 -0.0000
# 12 vertex normals

vt 0.5768 0.9468 0.0000
vt 0.5155 0.8724 0.0000
vt 0.5218 0.4448 0.0000
vt 0.5771 0.4453 0.0000
vt 0.3870 0.9419 0.0000
vt 0.4064 0.4408 0.0000
vt 0.4617 0.4425 0.0000
vt 0.4512 0.8699 0.0000
vt 0.6942 0.5282 0.0000
vt 0.6942 0.9151 0.0000
vt 0.6713 0.9151 0.0000
vt 0.6713 0.5282 0.0000
vt 0.6942 0.1215 0.0000
vt 0.6942 0.4475 0.0000
vt 0.6713 0.4475 0.0000
vt 0.6713 0.1215 0.0000
vt 0.1195 0.0643 0.0000
vt 0.2113 0.0643 0.0000
vt 0.2113 0.9481 0.0000
vt 0.1195 0.9481 0.0000
vt 0.0986 0.0602 0.0000
vt 0.0986 0.9440 0.0000
vt 0.0068 0.9440 0.0000
vt 0.0068 0.0602 0.0000
vt 0.2763 0.0870 0.0000
vt 0.2763 0.9708 0.0000
vt 0.2534 0.9708 0.0000
vt 0.2534 0.0870 0.0000
vt 0.3243 0.0808 0.0000
vt 0.3243 0.9646 0.0000
vt 0.3013 0.9646 0.0000
vt 0.3013 0.0808 0.0000
vt 0.4100 0.2682 0.0000
vt 0.4100 0.3601 0.0000
vt 0.3870 0.3601 0.0000
vt 0.3870 0.2682 0.0000
vt 0.7288 0.2310 0.0000
vt 0.7288 0.8246 0.0000
vt 0.7249 0.8246 0.0000
vt 0.7249 0.2310 0.0000
vt -0.0007 0.9408 0.0000
vt -0.0007 0.0512 0.0000
vt 0.9673 0.0512 0.0000
vt 0.9673 0.9408 0.0000
vt 0.9651 0.0501 0.0000
vt 0.0039 0.0501 0.0000
vt 0.0039 -0.0071 0.0000
vt 0.9651 -0.0071 0.0000
vt 0.8672 0.9391 0.0000
vt 0.8672 0.0479 0.0000
vt 0.9197 0.0479 0.0000
vt 0.9197 0.9391 0.0000
vt 0.0032 -0.0057 0.0000
vt 0.9645 -0.0045 0.0000
vt 0.9645 0.0526 0.0000
vt 0.0033 0.0526 0.0000
vt 0.6552 0.0497 0.0000
vt 0.6552 0.9409 0.0000
vt 0.6028 0.9409 0.0000
vt 0.6028 0.0497 0.0000
# 60 texture coords

g poorfolks_tavern_sign
usemtl Material__592
s off
f 1/1/1 2/2/1 3/3/1 4/4/1 
f 5/5/2 6/6/2 7/7/2 8/8/2 
f 1/9/3 4/10/3 6/11/3 5/12/3 
f 3/13/4 2/14/4 8/15/4 7/16/4 
f 9/17/5 10/18/5 11/19/5 12/20/5 
f 13/21/6 14/22/6 15/23/6 16/24/6 
f 9/25/7 12/26/7 14/27/7 13/28/7 
f 11/29/8 10/30/8 16/31/8 15/32/8 
f 10/33/9 9/34/9 13/35/9 16/36/9 
f 17/37/5 18/38/5 19/39/5 20/40/5 
f 21/38/6 22/39/6 23/40/6 24/37/6 
f 20/37/10 19/38/10 23/39/10 22/40/10 
f 18/37/9 17/38/9 21/39/9 24/40/9 
f 25/37/5 26/38/5 27/39/5 28/40/5 
f 29/38/6 30/39/6 31/40/6 32/37/6 
f 28/37/10 27/38/10 31/39/10 30/40/10 
f 26/37/9 25/38/9 29/39/9 32/40/9 
usemtl Material__580
f 33/41/5 34/42/5 35/43/5 36/44/5 
f 37/44/6 38/41/6 39/42/6 40/43/6 
f 33/45/11 36/46/11 38/47/11 37/48/11 
f 36/49/10 35/50/10 39/51/10 38/52/10 
f 35/53/12 34/54/12 40/55/12 39/56/12 
f 34/57/9 33/58/9 37/59/9 40/60/9 
# 23 polygons

